<svg width="40" height="27" viewBox="0 0 40 27" fill="none" xmlns="http://www.w3.org/2000/svg">
<path d="M20 18C22.1217 18 24.1566 17.3152 25.6569 16.0962C27.1571 14.8772 28 13.2239 28 11.5C28 9.77612 27.1571 8.12282 25.6569 6.90384C24.1566 5.68485 22.1217 5.00003 20 5.00003C17.8783 5.00003 15.8434 5.68485 14.3431 6.90384C12.8429 8.12282 12 9.77612 12 11.5C12 13.2239 12.8429 14.8772 14.3431 16.0962C15.8434 17.3152 17.8783 18 20 18Z" fill="#DAA1E5"/>
<path fill-rule="evenodd" clip-rule="evenodd" d="M0 13.195C2.65686 5.54754 10.5607 0 19.8994 0C29.238 0 37.1419 5.54754 39.7987 13.195C37.1419 20.8424 29.238 26.3899 19.8994 26.3899C10.5607 26.3899 2.65686 20.8424 0 13.195ZM28.2412 13.195C28.2412 15.1947 27.3623 17.1125 25.7979 18.5265C24.2335 19.9406 22.1117 20.7349 19.8994 20.7349C17.687 20.7349 15.5652 19.9406 14.0008 18.5265C12.4364 17.1125 11.5576 15.1947 11.5576 13.195C11.5576 11.1952 12.4364 9.27741 14.0008 7.86339C15.5652 6.44937 17.687 5.65498 19.8994 5.65498C22.1117 5.65498 24.2335 6.44937 25.7979 7.86339C27.3623 9.27741 28.2412 11.1952 28.2412 13.195Z" fill="#DAA1E5"/>
</svg>
