<?xml version="1.0" encoding="UTF-8"?>
<svg version="1.1" viewBox="0 0 2000 2000" width="1280" height="1280" xmlns="http://www.w3.org/2000/svg">
<path transform="translate(0)" d="m0 0h2e3v2e3h-2e3z"/>
<path transform="translate(738,1595)" d="m0 0h9l9 6 7 7 9 11 21 21 11 9 12 10 20 15 11 8 19 12 24 14 28 16 27 15 22 12 23 12 46 26 24 14 16 10 17 12 19 14 11 9 14 12 10 9 13 13 7 8 13 16 10 15 10 17 11 22 10 28 3 9v3h-535l-2-7-5-37-3-35-1-23v-51l3-44 5-41 6-35 10-45 10-36 12-36 4-8 7-6z" fill="#FEFEFE"/>
<path transform="translate(1803,552)" d="m0 0h9l6 4 10 10 8 10 9 10 19 19 11 9 13 11 17 13 22 15 20 13 20 12 22 13 11 7v435l-5-3-34-34-7-8-11-13-13-17-13-18-10-16-8-13-12-22-13-26-11-27-9-25-12-42-8-36-6-36-6-51v26l2 51 3 37 5 40 6 34 8 34 8 29 11 32 14 33 11 22 13 23 10 16 11 16 14 18 9 11 7 7 7 8 17 17 11 9 10 9-2 90-3 1-32-16-27-16-16-11-14-10-14-12-10-9-27-27-9-11-11-13-13-19-7-10-15-26-8-16-11-23-10-26-10-30-7-27-6-27-5-29-4-35-2-28-1-33v-15l1-32 3-37 5-39 8-43 10-42 8-28 12-36 7-18 5-8 6-4z" fill="#FEFEFE"/>
<path transform="translate(0,696)" d="m0 0 16 8 32 17 22 12 26 15 13 8 24 15 18 13 14 11 13 11 11 9 7 7 8 7 8 8 9 11 10 12 12 18 9 16 11 23 7 20 7 26 5 32 1 12v52l-3 27-4 25-6 29-10 38-11 35-13 36-1 2-9-3-31-11-34-14-33-15-22-11-23-13-18-11-22-15-17-12-14-11-10-8-2-1z" fill="#FEFEFE"/>
<path transform="translate(813,3)" d="m0 0h405l2 5 4 24 3 31v35l-2 24-4 30-6 31-8 32-10 34-11 32-7 19-7-1-32-11-30-12-29-13-34-17-23-13-24-15-16-11-19-14-14-11-15-13-8-7-16-15-8-8-7-8-10-11-9-11-10-12-13-18-11-17-12-20-10-18-9-18z" fill="#FEFEFE"/>
<path transform="translate(683,3)" d="m0 0h99l3 8 10 33 14 37 16 33 10 19 15 25 13 18 9 12 12 14 11 13 23 23 2 1v2l4 2 11 9 18 14 35 23 27 15 16 8 37 15 37 13 44 11 47 9 35 5 32 3 25 2 7 1 2 4-5 3-40 5-34 3-56 2h-28l-40-2-42-5-23-4-25-6-35-10-32-12-26-12-17-9-16-10-24-16-17-13-14-12-16-15-11-12-9-10-8-10-13-17-14-21-10-17-15-28-13-30-11-30-10-33-7-30-3-16z" fill="#FEFEFE"/>
<path transform="translate(0,1209)" d="m0 0 9 6 14 10 15 10 25 14 17 9 29 13 42 15 34 10 24 6 35 7 40 5 60 6 8 1 1 5-6 2-20 3-39 4-35 2-33 1h-36l-32-2-35-4-27-4-26-6-35-10-29-11z" fill="#FEFEFE"/>
<path transform="translate(761,1779)" d="m0 0h1l8 57 7 37 8 34 8 27 10 29 11 26 4 9v2h-30l-9-36-7-39-5-38-3-34-3-55z"/>
</svg>
