<?xml version="1.0" encoding="UTF-8"?>
<svg version="1.1" viewBox="0 0 2000 2000" width="1280" height="1280" xmlns="http://www.w3.org/2000/svg">
<path transform="translate(0)" d="m0 0h2e3v2e3h-2e3z"/>
<path transform="translate(1843,514)" d="m0 0h7l8 4 9 10 12 16 11 13 7 8 23 23 11 9 13 11 13 10 19 14 19 13 5 3v634l-4-1-28-15-30-20-17-13-11-9-13-12-7-6-7-8-8-8-7-8-13-16-13-18-12-19-15-26-11-23-10-25-7-20-9-30-8-36-5-30-3-25-2-26-1-25v-33l1-27 4-44 6-40 8-40 9-36 13-43 13-36 16-38 6-8z" fill="#fff"/>
<path transform="translate(792)" d="m0 0h387l6 10 10 18 8 19 8 24 5 21 3 21 2 28v16l-3 36-5 30-7 30-9 31-10 29-16 40-16 36-4 1-33-14-29-14-19-10-24-14-25-15-17-12-15-11-13-10-13-11-10-9-8-7-10-10-8-7-12-12-7-8-9-10-8-10-14-18-20-30-14-24-14-27-15-34-12-35-10-35z" fill="#fff"/>
<path transform="translate(763,1621)" d="m0 0h7l8 4 7 7 14 19 9 10 7 8 11 12 8 7 12 11 11 9 15 13 20 15 17 12 44 29 46 30 22 14 34 23 19 14 14 11 11 9 17 14 8 7v2l4 2 15 15 9 11 8 9 11 15 10 15 12 21 5 11h-517l-1-12v-75l4-46 7-46 7-35 8-32 10-34 11-33 10-26 13-30 6-7z" fill="#fff"/>
<path transform="translate(0,701)" d="m0 0 7 4 18 12 31 21 15 11 21 16 11 9 10 9 8 7 29 29 18 22 10 15 13 22 9 19 9 25 6 24 4 26 2 29v13l-2 29-5 33-6 27-10 36-11 32-14 35-11 25-7 16-4 1-35-16-23-11-25-13-22-13-21-13-25-17z" fill="#fff"/>
<path transform="translate(680)" d="m0 0h93l3 20 5 36 6 30 8 32 12 38 11 27 13 28 13 24 18 27 12 17 12 14 9 11 25 25 8 7 14 12 13 10 14 10 17 11 18 11 22 12 28 13 25 10 27 10 29 9 30 8 39 8 35 6 25 4 2 2-1 5-3 1-12 1h-90l-34-2-33-3-36-6-31-6-25-6-27-8-33-13-34-16-24-13-15-10-17-12-26-22-10-9-20-20-9-11-10-12-10-14-10-15-12-20-12-23-10-21-8-20-11-33-8-30-7-35-5-37-3-37z" fill="#fff"/>
<path transform="translate(1853,701)" d="m0 0h1l2 47 3 35 5 35 7 35 8 31 12 36 8 21 11 24 12 24 16 27 11 17 10 14 11 14 9 11 9 10 11 12 1 1v90l-5-3-20-20-7-8-11-13-12-16-14-20-14-24-15-29-11-26-11-30-10-35-8-36-6-36-4-37-2-31v-76z"/>
<path transform="translate(0,1245)" d="m0 0 16 8 19 10 29 13 27 11 33 11 53 14 39 8 44 6 5 2 1 4-3 3-35 2h-26l-59-2-39-3-24-3-35-6-31-7-14-4z" fill="#fff"/>
<path transform="translate(773,1808)" d="m0 0h1l3 58 4 37 6 37 7 31 7 25 1 4h-25l-4-34-3-42v-66l2-35z"/>
</svg>
